<?xml version="1.0" encoding="UTF-8" standalone="no"?><!DOCTYPE svg PUBLIC "-//W3C//DTD SVG 1.1//EN" "http://www.w3.org/Graphics/SVG/1.1/DTD/svg11.dtd"><svg width="100%" height="100%" viewBox="0 0 59 59" version="1.1" xmlns="http://www.w3.org/2000/svg" xmlns:xlink="http://www.w3.org/1999/xlink" xml:space="preserve" xmlns:serif="http://www.serif.com/" style="fill-rule:evenodd;clip-rule:evenodd;stroke-linejoin:round;stroke-miterlimit:2;"><path d="M58.333,29.343c0,-16.204 -13.059,-29.343 -29.166,-29.343c-16.107,-0 -29.167,13.139 -29.167,29.343c0,14.645 10.664,26.784 24.609,28.988l0,-20.504l-7.407,0l-0,-8.484l7.407,-0l0,-6.465c0,-7.353 4.356,-11.417 11.017,-11.417c3.192,-0 6.53,0.573 6.53,0.573l0,7.222l-3.679,0c-3.621,0 -4.754,2.261 -4.754,4.585l-0,5.502l8.088,-0l-1.291,8.484l-6.796,0l0,20.506c13.945,-2.202 24.609,-14.341 24.609,-28.99Z" style="fill:#9d9d9d;"/></svg>