<?xml version="1.0" encoding="UTF-8" standalone="no"?><!DOCTYPE svg PUBLIC "-//W3C//DTD SVG 1.1//EN" "http://www.w3.org/Graphics/SVG/1.1/DTD/svg11.dtd"><svg width="100%" height="100%" viewBox="0 0 16 19" version="1.1" xmlns="http://www.w3.org/2000/svg" xmlns:xlink="http://www.w3.org/1999/xlink" xml:space="preserve" xmlns:serif="http://www.serif.com/" style="fill-rule:evenodd;clip-rule:evenodd;stroke-linejoin:round;stroke-miterlimit:2;"><g id="Refresh"><path d="M0.008,11.137c0.005,0.168 0.014,0.335 0.029,0.503c0.029,0.329 0.08,0.656 0.151,0.978c0.235,1.064 0.697,2.076 1.347,2.955c0.697,0.942 1.606,1.727 2.644,2.284c0.979,0.525 2.069,0.841 3.18,0.925c1.037,0.077 2.087,-0.045 3.076,-0.363c0.949,-0.306 1.837,-0.79 2.606,-1.419c0.737,-0.603 1.364,-1.337 1.84,-2.157c0.421,-0.724 0.723,-1.513 0.893,-2.331c0.155,-0.751 0.198,-1.524 0.129,-2.287c-0.07,-0.78 -0.259,-1.549 -0.559,-2.274c-0.341,-0.822 -0.823,-1.584 -1.42,-2.247c-0.615,-0.684 -1.349,-1.26 -2.163,-1.696c-0.802,-0.43 -1.679,-0.722 -2.582,-0.858c-0.299,-0.045 -0.6,-0.073 -0.902,-0.084c-0.134,-0.005 -0.269,-0.006 -0.403,-0.005l0.011,1.749c0.083,-0 0.083,-0 0.166,0c0.079,0.002 0.079,0.002 0.159,0.004c0.338,0.015 0.674,0.052 1.006,0.119c0.692,0.14 1.357,0.398 1.96,0.76c0.616,0.369 1.166,0.844 1.618,1.398c0.44,0.538 0.786,1.15 1.02,1.803c0.206,0.578 0.323,1.187 0.346,1.8c0.022,0.568 -0.035,1.138 -0.171,1.69c-0.149,0.604 -0.392,1.184 -0.719,1.716c-0.386,0.629 -0.888,1.189 -1.473,1.645c-0.591,0.459 -1.265,0.812 -1.983,1.033c-0.773,0.239 -1.593,0.323 -2.399,0.253c-0.861,-0.075 -1.703,-0.331 -2.458,-0.748c-0.803,-0.443 -1.503,-1.063 -2.036,-1.803c-0.498,-0.689 -0.847,-1.48 -1.02,-2.31c-0.052,-0.252 -0.088,-0.507 -0.108,-0.764c-0.01,-0.132 -0.015,-0.264 -0.018,-0.396l-0.005,-0.435l-1.77,0.023c0.002,0.18 0.004,0.359 0.008,0.539Z" style="fill-rule:nonzero;"/><path d="M7.936,8.309l-0.108,-8.309l-7.037,3.371l7.145,4.938Z"/></g></svg>